<mxfile host="app.diagrams.net" agent="Mozilla/5.0 (Windows NT 10.0; Win64; x64) AppleWebKit/537.36 (KHTML, like Gecko) Chrome/126.0.0.0 YaBrowser/24.7.0.0 Safari/537.36" version="24.7.16">
  <diagram name="Страница — 1" id="rRfhvT2SIG7ZmbmT36ff">
    <mxGraphModel grid="1" page="1" gridSize="10" guides="1" tooltips="1" connect="1" arrows="1" fold="1" pageScale="1" pageWidth="827" pageHeight="1169" math="0" shadow="0">
      <root>
        <mxCell id="0" />
        <mxCell id="1" parent="0" />
        <mxCell id="2JqHEqM8fnOQ7m6vJwmr-2" value="Гость" style="shape=umlActor;verticalLabelPosition=bottom;verticalAlign=top;html=1;outlineConnect=0;labelBackgroundColor=none;fillColor=#F2CC8F;strokeColor=#E07A5F;fontColor=#393C56;" vertex="1" parent="1">
          <mxGeometry x="400" y="270" width="30" height="60" as="geometry" />
        </mxCell>
        <mxCell id="2JqHEqM8fnOQ7m6vJwmr-3" value="" style="endArrow=none;html=1;rounded=0;labelBackgroundColor=none;strokeColor=#E07A5F;fontColor=default;" edge="1" parent="1" target="2JqHEqM8fnOQ7m6vJwmr-4">
          <mxGeometry width="50" height="50" relative="1" as="geometry">
            <mxPoint x="414.65999999999997" y="360" as="sourcePoint" />
            <mxPoint x="414.65999999999997" y="420" as="targetPoint" />
          </mxGeometry>
        </mxCell>
        <mxCell id="2JqHEqM8fnOQ7m6vJwmr-4" value="" style="ellipse;whiteSpace=wrap;html=1;labelBackgroundColor=none;fillColor=#F2CC8F;strokeColor=#E07A5F;fontColor=#393C56;" vertex="1" parent="1">
          <mxGeometry x="354.65999999999985" y="379.9999999999999" width="120" height="80" as="geometry" />
        </mxCell>
        <mxCell id="2JqHEqM8fnOQ7m6vJwmr-5" value="Регистрация" style="text;html=1;align=center;verticalAlign=middle;whiteSpace=wrap;rounded=0;labelBackgroundColor=none;fontColor=#393C56;" vertex="1" parent="1">
          <mxGeometry x="384" y="405" width="60" height="30" as="geometry" />
        </mxCell>
      </root>
    </mxGraphModel>
  </diagram>
</mxfile>
